<svg width="215" height="23" viewBox="0 0 215 23" fill="none" xmlns="http://www.w3.org/2000/svg">
<path d="M0.896 2.928H1.184C1.35467 2.928 1.536 2.896 1.728 2.832C1.92 2.768 2.13333 2.69333 2.368 2.608C2.73067 2.48 3.168 2.352 3.68 2.224C4.192 2.07467 4.82133 2 5.568 2C6.42133 2 7.17867 2.128 7.84 2.384C8.52267 2.61867 9.088 2.94933 9.536 3.376C10.0053 3.78133 10.3573 4.26133 10.592 4.816C10.848 5.37067 10.976 5.94667 10.976 6.544C10.976 7.376 10.72 8.176 10.208 8.944C9.71733 9.712 8.94933 10.3307 7.904 10.8C9.376 11.2267 10.4747 11.9093 11.2 12.848C11.9253 13.7867 12.288 14.8533 12.288 16.048C12.288 16.944 12.1173 17.776 11.776 18.544C11.456 19.2907 10.976 19.952 10.336 20.528C9.71733 21.0827 8.97067 21.52 8.096 21.84C7.22133 22.16 6.24 22.32 5.152 22.32C4.34133 22.32 3.66933 22.2453 3.136 22.096C2.60267 21.9467 2.15467 21.808 1.792 21.68C1.55733 21.5947 1.344 21.5307 1.152 21.488C0.96 21.424 0.768 21.392 0.576 21.392H0.288V18.928H0.608C1.16267 19.696 1.84533 20.2827 2.656 20.688C3.488 21.072 4.34133 21.264 5.216 21.264C5.984 21.264 6.67733 21.136 7.296 20.88C7.91467 20.6027 8.43733 20.24 8.864 19.792C9.312 19.344 9.64267 18.832 9.856 18.256C10.0907 17.68 10.208 17.0827 10.208 16.464C10.208 15.824 10.08 15.2053 9.824 14.608C9.568 13.9893 9.20533 13.4453 8.736 12.976C8.26667 12.5067 7.69067 12.1333 7.008 11.856C6.34667 11.5787 5.58933 11.44 4.736 11.44H3.264V10.384H4.896C5.55733 10.384 6.13333 10.2773 6.624 10.064C7.136 9.85067 7.56267 9.56267 7.904 9.2C8.24533 8.83733 8.50133 8.432 8.672 7.984C8.84267 7.536 8.928 7.06667 8.928 6.576C8.928 6.128 8.84267 5.69067 8.672 5.264C8.52267 4.83733 8.288 4.464 7.968 4.144C7.648 3.80267 7.25333 3.52533 6.784 3.312C6.336 3.09867 5.81333 2.992 5.216 2.992C4.49067 2.992 3.76533 3.19467 3.04 3.6C2.31467 4.00533 1.70667 4.61333 1.216 5.424H0.896V2.928ZM21.4978 10.16C20.7297 10.16 20.0577 10.2987 19.4818 10.576C18.9271 10.832 18.4577 11.184 18.0738 11.632C17.7111 12.08 17.4337 12.592 17.2417 13.168C17.0711 13.744 16.9857 14.3413 16.9857 14.96C16.9857 15.7067 17.0924 16.4533 17.3057 17.2C17.5404 17.9467 17.8711 18.6187 18.2977 19.216C18.7457 19.792 19.2791 20.272 19.8977 20.656C20.5164 21.0187 21.2311 21.2 22.0417 21.2C22.7671 21.2 23.4071 21.0613 23.9618 20.784C24.5164 20.4853 24.9751 20.1013 25.3378 19.632C25.7218 19.1413 25.9991 18.5867 26.1698 17.968C26.3618 17.3493 26.4578 16.72 26.4578 16.08C26.4578 15.3547 26.3404 14.64 26.1058 13.936C25.8924 13.232 25.5724 12.6027 25.1458 12.048C24.7404 11.472 24.2284 11.0133 23.6097 10.672C22.9911 10.3307 22.2871 10.16 21.4978 10.16ZM26.0417 4.88C25.7004 4.45333 25.2844 4.112 24.7937 3.856C24.3244 3.6 23.8764 3.472 23.4497 3.472C22.4684 3.472 21.6151 3.71733 20.8898 4.208C20.1644 4.67733 19.5564 5.264 19.0658 5.968C18.5964 6.672 18.2231 7.44 17.9457 8.272C17.6684 9.08267 17.4871 9.84 17.4017 10.544C18.0204 9.98933 18.7138 9.60533 19.4818 9.392C20.2497 9.15733 21.0498 9.04 21.8818 9.04C22.9698 9.04 23.9191 9.232 24.7298 9.616C25.5618 9.97867 26.2444 10.4693 26.7778 11.088C27.3324 11.6853 27.7378 12.3787 27.9938 13.168C28.2711 13.9573 28.4097 14.768 28.4097 15.6C28.4097 16.432 28.2711 17.2533 27.9938 18.064C27.7164 18.8747 27.3004 19.6 26.7458 20.24C26.1911 20.8587 25.4978 21.36 24.6658 21.744C23.8551 22.128 22.9057 22.32 21.8177 22.32C20.6231 22.32 19.5884 22.096 18.7137 21.648C17.8391 21.2 17.1244 20.6027 16.5697 19.856C16.0151 19.088 15.5991 18.2027 15.3217 17.2C15.0657 16.1973 14.9377 15.152 14.9377 14.064C14.9377 12.656 15.1297 11.2587 15.5137 9.872C15.9191 8.464 16.5057 7.20533 17.2737 6.096C18.0417 4.96533 18.9804 4.048 20.0897 3.344C21.1991 2.64 22.4684 2.288 23.8977 2.288C24.1964 2.288 24.5058 2.30933 24.8258 2.352C25.1671 2.39467 25.4658 2.43733 25.7218 2.48C25.8498 2.50133 25.9778 2.52267 26.1058 2.544C26.2551 2.56533 26.3404 2.576 26.3618 2.576V4.88H26.0417ZM42.5605 16.016C42.5605 16.7627 42.4112 17.52 42.1125 18.288C41.8352 19.0347 41.4085 19.7067 40.8325 20.304C40.2565 20.9013 39.5205 21.392 38.6245 21.776C37.7498 22.1387 36.7258 22.32 35.5525 22.32C34.9765 22.32 34.4112 22.256 33.8565 22.128C33.3018 22 32.7792 21.872 32.2885 21.744C31.9258 21.6373 31.5952 21.552 31.2965 21.488C30.9978 21.4027 30.7312 21.36 30.4965 21.36V18.832C31.0512 19.5787 31.7765 20.1653 32.6725 20.592C33.5898 21.0187 34.5072 21.232 35.4245 21.232C36.2565 21.232 36.9818 21.104 37.6005 20.848C38.2192 20.592 38.7312 20.2507 39.1365 19.824C39.5632 19.376 39.8725 18.8533 40.0645 18.256C40.2778 17.6373 40.3845 16.976 40.3845 16.272C40.3845 15.4187 40.2352 14.672 39.9365 14.032C39.6592 13.392 39.2858 12.8587 38.8165 12.432C38.3472 11.984 37.8032 11.6533 37.1845 11.44C36.5872 11.2267 35.9792 11.12 35.3605 11.12C34.6778 11.12 33.9312 11.28 33.1205 11.6C32.3098 11.8987 31.4778 12.3787 30.6245 13.04L34.7205 2.32H42.7205L42.0805 4.112H35.3925C35.0298 5.072 34.6352 6.064 34.2085 7.088C33.8032 8.112 33.4192 9.11467 33.0565 10.096C33.5685 9.86133 34.0485 9.70133 34.4965 9.616C34.9445 9.53067 35.4245 9.488 35.9365 9.488C36.7898 9.488 37.6112 9.63733 38.4005 9.936C39.1898 10.2347 39.8938 10.6613 40.5125 11.216C41.1312 11.7707 41.6218 12.4533 41.9845 13.264C42.3685 14.0747 42.5605 14.992 42.5605 16.016ZM71.6235 21.68H71.7835C71.9328 21.68 72.0715 21.616 72.1995 21.488C72.3275 21.36 72.4342 21.2107 72.5195 21.04C72.6262 20.8693 72.7008 20.688 72.7435 20.496C72.7862 20.2827 72.8075 20.0907 72.8075 19.92V3.088L64.5515 22.352L56.7115 4.08V19.92C56.7115 20.0907 56.7328 20.2827 56.7755 20.496C56.8182 20.688 56.8822 20.8693 56.9675 21.04C57.0742 21.2107 57.1915 21.36 57.3195 21.488C57.4475 21.616 57.5968 21.68 57.7675 21.68H57.9275V22H54.4395V21.68H54.5995C54.7488 21.68 54.8875 21.616 55.0155 21.488C55.1435 21.36 55.2502 21.2107 55.3355 21.04C55.4208 20.8693 55.4848 20.688 55.5275 20.496C55.5702 20.2827 55.5915 20.0907 55.5915 19.92V2.864C55.5915 2.71467 55.5702 2.544 55.5275 2.352C55.4848 2.16 55.4208 1.97867 55.3355 1.808C55.2502 1.63733 55.1435 1.49866 55.0155 1.392C54.8875 1.264 54.7488 1.2 54.5995 1.2H54.4395V0.879999H57.7035L65.1275 18.384L72.5515 0.879999H76.1675V1.2H76.0075C75.8368 1.2 75.6875 1.264 75.5595 1.392C75.4315 1.49866 75.3142 1.63733 75.2075 1.808C75.1222 1.97867 75.0582 2.16 75.0155 2.352C74.9728 2.544 74.9515 2.71467 74.9515 2.864V19.92C74.9515 20.0907 74.9728 20.2827 75.0155 20.496C75.0582 20.688 75.1222 20.8693 75.2075 21.04C75.3142 21.2107 75.4315 21.36 75.5595 21.488C75.6875 21.616 75.8368 21.68 76.0075 21.68H76.1675V22H71.6235V21.68ZM79.7305 0.879999H84.3065V1.2H84.1465C83.9972 1.2 83.8585 1.264 83.7305 1.392C83.6025 1.49866 83.4958 1.63733 83.4105 1.808C83.3252 1.95733 83.2505 2.13867 83.1865 2.352C83.1438 2.544 83.1225 2.71467 83.1225 2.864V19.92C83.1225 20.0907 83.1438 20.2827 83.1865 20.496C83.2292 20.688 83.2932 20.8693 83.3785 21.04C83.4852 21.2107 83.5918 21.36 83.6985 21.488C83.8265 21.616 83.9758 21.68 84.1465 21.68H84.3065V22H79.7305V21.68H79.8905C80.0612 21.68 80.2105 21.6267 80.3385 21.52C80.4665 21.392 80.5732 21.2427 80.6585 21.072C80.7652 20.88 80.8398 20.688 80.8825 20.496C80.9252 20.2827 80.9465 20.0907 80.9465 19.92V2.864C80.9465 2.71467 80.9252 2.544 80.8825 2.352C80.8398 2.16 80.7652 1.97867 80.6585 1.808C80.5732 1.63733 80.4665 1.49866 80.3385 1.392C80.2105 1.264 80.0612 1.2 79.8905 1.2H79.7305V0.879999ZM91.0637 21.68H91.2237V22H87.6717V21.68H87.8317C87.9811 21.68 88.1197 21.616 88.2477 21.488C88.3971 21.36 88.5144 21.2107 88.5997 21.04C88.6851 20.8693 88.7491 20.688 88.7917 20.496C88.8557 20.2827 88.8877 20.0907 88.8877 19.92V2.864C88.8877 2.71467 88.8664 2.544 88.8237 2.352C88.8024 2.16 88.7491 1.97867 88.6637 1.808C88.5784 1.63733 88.4611 1.49866 88.3117 1.392C88.1624 1.264 87.9811 1.2 87.7677 1.2H87.6077V0.879999H90.8397L102.456 19.184V2.864C102.456 2.71467 102.424 2.544 102.36 2.352C102.317 2.16 102.242 1.97867 102.136 1.808C102.05 1.63733 101.944 1.49866 101.816 1.392C101.688 1.264 101.538 1.2 101.368 1.2H101.208V0.879999H104.792V1.2H104.632C104.461 1.2 104.312 1.264 104.184 1.392C104.056 1.49866 103.938 1.63733 103.832 1.808C103.746 1.97867 103.682 2.16 103.64 2.352C103.597 2.544 103.576 2.71467 103.576 2.864V22H101.592L90.0077 3.632V19.92C90.0077 20.0907 90.0291 20.2827 90.0717 20.496C90.1144 20.688 90.1784 20.8693 90.2637 21.04C90.3704 21.2107 90.4877 21.36 90.6157 21.488C90.7437 21.616 90.8931 21.68 91.0637 21.68ZM108.245 0.879999H112.821V1.2H112.661C112.512 1.2 112.373 1.264 112.245 1.392C112.117 1.49866 112.011 1.63733 111.925 1.808C111.84 1.95733 111.765 2.13867 111.701 2.352C111.659 2.544 111.637 2.71467 111.637 2.864V19.92C111.637 20.0907 111.659 20.2827 111.701 20.496C111.744 20.688 111.808 20.8693 111.893 21.04C112 21.2107 112.107 21.36 112.213 21.488C112.341 21.616 112.491 21.68 112.661 21.68H112.821V22H108.245V21.68H108.405C108.576 21.68 108.725 21.6267 108.853 21.52C108.981 21.392 109.088 21.2427 109.173 21.072C109.28 20.88 109.355 20.688 109.397 20.496C109.44 20.2827 109.461 20.0907 109.461 19.92V2.864C109.461 2.71467 109.44 2.544 109.397 2.352C109.355 2.16 109.28 1.97867 109.173 1.808C109.088 1.63733 108.981 1.49866 108.853 1.392C108.725 1.264 108.576 1.2 108.405 1.2H108.245V0.879999ZM137.811 16.336C137.811 17.4027 137.598 18.32 137.171 19.088C136.745 19.8347 136.19 20.4427 135.507 20.912C134.846 21.3813 134.089 21.7227 133.235 21.936C132.403 22.1493 131.571 22.256 130.739 22.256C129.886 22.256 129.15 22.1707 128.531 22C127.913 21.8293 127.347 21.6693 126.835 21.52C126.494 21.4133 126.185 21.328 125.907 21.264C125.63 21.1787 125.353 21.136 125.075 21.136V17.488H125.395C125.395 18.2987 125.598 18.9493 126.003 19.44C126.43 19.9093 126.921 20.272 127.475 20.528C128.03 20.784 128.585 20.9547 129.139 21.04C129.694 21.104 130.099 21.136 130.355 21.136C131.273 21.136 132.062 21.008 132.723 20.752C133.385 20.4747 133.929 20.1227 134.355 19.696C134.782 19.248 135.091 18.7573 135.283 18.224C135.497 17.6907 135.603 17.1467 135.603 16.592C135.603 15.888 135.454 15.3013 135.155 14.832C134.857 14.3413 134.462 13.9147 133.971 13.552C133.502 13.1893 132.958 12.88 132.339 12.624C131.721 12.368 131.091 12.112 130.451 11.856C129.726 11.5787 129.011 11.2907 128.307 10.992C127.603 10.6933 126.974 10.3307 126.419 9.904C125.865 9.456 125.417 8.93333 125.075 8.336C124.734 7.71733 124.563 6.96 124.563 6.064C124.563 5.12533 124.745 4.31467 125.107 3.632C125.47 2.928 125.95 2.352 126.547 1.904C127.166 1.456 127.859 1.12533 128.627 0.911999C129.417 0.677333 130.217 0.559999 131.027 0.559999C131.582 0.559999 132.105 0.602666 132.595 0.688C133.086 0.751999 133.555 0.837332 134.003 0.943998C134.366 1.02933 134.718 1.104 135.059 1.168C135.401 1.21067 135.731 1.232 136.051 1.232V4.528H135.731C135.689 3.41867 135.251 2.672 134.419 2.288C133.587 1.88266 132.435 1.68 130.963 1.68C130.11 1.68 129.406 1.82933 128.851 2.128C128.318 2.40533 127.891 2.75733 127.571 3.184C127.251 3.58933 127.027 4.03733 126.899 4.528C126.793 4.99733 126.739 5.41333 126.739 5.776C126.739 6.37333 126.867 6.88533 127.123 7.312C127.401 7.73867 127.763 8.112 128.211 8.432C128.659 8.752 129.171 9.04 129.747 9.296C130.345 9.552 130.963 9.79733 131.603 10.032C132.329 10.3093 133.065 10.608 133.811 10.928C134.558 11.248 135.219 11.6427 135.795 12.112C136.393 12.5813 136.873 13.1573 137.235 13.84C137.619 14.5227 137.811 15.3547 137.811 16.336ZM151.458 21.68H151.618C152.13 21.68 152.386 21.4453 152.386 20.976C152.386 20.8053 152.354 20.624 152.29 20.432L149.41 12.656H143.81L141.026 20.304C140.962 20.4747 140.93 20.6347 140.93 20.784C140.93 21.0613 141.004 21.2853 141.154 21.456C141.303 21.6053 141.463 21.68 141.634 21.68H141.794V22H138.242V21.68H138.402C138.679 21.68 138.946 21.52 139.202 21.2C139.479 20.8587 139.703 20.464 139.874 20.016L147.202 0.495998L154.37 19.824C154.519 20.2507 154.722 20.6667 154.978 21.072C155.255 21.4773 155.607 21.68 156.034 21.68H156.194V22H151.458V21.68ZM144.13 11.568H149.058L146.594 4.88L144.13 11.568ZM158.429 21.68H158.589C158.759 21.68 158.909 21.6267 159.037 21.52C159.165 21.392 159.271 21.2427 159.357 21.072C159.463 20.9013 159.538 20.72 159.581 20.528C159.645 20.336 159.677 20.1547 159.677 19.984V2.864C159.677 2.71467 159.645 2.544 159.581 2.352C159.538 2.16 159.463 1.97867 159.357 1.808C159.271 1.63733 159.165 1.49866 159.037 1.392C158.909 1.264 158.759 1.2 158.589 1.2H158.429V0.879999H163.037V1.2H162.877C162.706 1.2 162.557 1.264 162.429 1.392C162.301 1.49866 162.194 1.63733 162.109 1.808C162.023 1.97867 161.949 2.16 161.885 2.352C161.842 2.544 161.821 2.71467 161.821 2.864V20.816H168.829C169.234 20.816 169.586 20.72 169.885 20.528C170.183 20.336 170.429 20.1013 170.621 19.824C170.834 19.5253 170.983 19.216 171.069 18.896C171.175 18.5547 171.229 18.2453 171.229 17.968H171.549V22H158.429V21.68ZM183.095 0.559999C184.759 0.559999 186.253 0.858666 187.575 1.456C188.898 2.032 190.018 2.82133 190.935 3.824C191.874 4.80533 192.589 5.95733 193.079 7.28C193.591 8.58133 193.847 9.94667 193.847 11.376C193.847 12.976 193.549 14.448 192.951 15.792C192.375 17.136 191.575 18.288 190.551 19.248C189.527 20.208 188.333 20.9653 186.967 21.52C185.623 22.0533 184.183 22.32 182.647 22.32C181.005 22.32 179.522 22.0213 178.199 21.424C176.898 20.8267 175.789 20.0373 174.871 19.056C173.975 18.0747 173.282 16.944 172.791 15.664C172.301 14.384 172.055 13.0507 172.055 11.664C172.055 10.2987 172.301 8.95467 172.791 7.632C173.282 6.288 173.997 5.09333 174.935 4.048C175.895 3.00267 177.058 2.16 178.423 1.52C179.789 0.879999 181.346 0.559999 183.095 0.559999ZM183.063 21.2C184.493 21.136 185.741 20.816 186.807 20.24C187.895 19.6427 188.802 18.896 189.527 18C190.253 17.0827 190.786 16.08 191.127 14.992C191.49 13.904 191.671 12.8267 191.671 11.76C191.671 10.5867 191.458 9.40267 191.031 8.208C190.605 7.01333 189.997 5.936 189.207 4.976C188.418 3.99467 187.469 3.20533 186.359 2.608C185.271 1.98933 184.045 1.68 182.679 1.68C181.357 1.68 180.173 1.97867 179.127 2.576C178.082 3.152 177.186 3.89867 176.439 4.816C175.714 5.73333 175.159 6.75733 174.775 7.888C174.391 9.01867 174.199 10.128 174.199 11.216C174.199 12.3893 174.423 13.5733 174.871 14.768C175.319 15.9413 175.938 17.008 176.727 17.968C177.517 18.928 178.445 19.7067 179.511 20.304C180.599 20.9013 181.783 21.2 183.063 21.2ZM200.335 21.68H200.495V22H196.943V21.68H197.103C197.252 21.68 197.391 21.616 197.519 21.488C197.668 21.36 197.786 21.2107 197.871 21.04C197.956 20.8693 198.02 20.688 198.063 20.496C198.127 20.2827 198.159 20.0907 198.159 19.92V2.864C198.159 2.71467 198.138 2.544 198.095 2.352C198.074 2.16 198.02 1.97867 197.935 1.808C197.85 1.63733 197.732 1.49866 197.583 1.392C197.434 1.264 197.252 1.2 197.039 1.2H196.879V0.879999H200.111L211.727 19.184V2.864C211.727 2.71467 211.695 2.544 211.631 2.352C211.588 2.16 211.514 1.97867 211.407 1.808C211.322 1.63733 211.215 1.49866 211.087 1.392C210.959 1.264 210.81 1.2 210.639 1.2H210.479V0.879999H214.063V1.2H213.903C213.732 1.2 213.583 1.264 213.455 1.392C213.327 1.49866 213.21 1.63733 213.103 1.808C213.018 1.97867 212.954 2.16 212.911 2.352C212.868 2.544 212.847 2.71467 212.847 2.864V22H210.863L199.279 3.632V19.92C199.279 20.0907 199.3 20.2827 199.343 20.496C199.386 20.688 199.45 20.8693 199.535 21.04C199.642 21.2107 199.759 21.36 199.887 21.488C200.015 21.616 200.164 21.68 200.335 21.68Z" fill="white"/>
</svg>
