<svg width="64" height="64" viewBox="0 0 64 64" fill="none" xmlns="http://www.w3.org/2000/svg">
<rect width="64" height="64" rx="10" fill="white"/>
<rect width="64" height="64" rx="10" fill="#FFA8DB"/>
<g clip-path="url(#clip0_60_451)">
<path fill-rule="evenodd" clip-rule="evenodd" d="M23.9692 23.9994C23.9694 22.4598 24.4069 20.953 25.2293 19.6597C26.0518 18.3664 27.2241 17.3416 28.6058 16.7083C29.9874 16.0749 31.5197 15.86 33.0187 16.0891C34.5177 16.3183 35.9197 16.9819 37.0565 18.0003C38.1934 19.0187 39.0168 20.3486 39.4279 21.8305C39.839 23.3124 39.8203 24.8833 39.3742 26.3547C38.9281 27.8261 38.0734 29.1355 36.9128 30.1258C35.7521 31.1161 34.3347 31.7452 32.8308 31.9376V42.9999C32.8308 43.2651 32.727 43.5195 32.5424 43.707C32.3577 43.8946 32.1073 43.9999 31.8462 43.9999C31.585 43.9999 31.3346 43.8946 31.1499 43.707C30.9653 43.5195 30.8615 43.2651 30.8615 42.9999V31.9396C28.9572 31.6959 27.206 30.7545 25.9369 29.292C24.6678 27.8296 23.9681 25.9489 23.9692 23.9994ZM28.8785 41.1478C28.9212 41.4093 28.86 41.6774 28.7082 41.893C28.5564 42.1086 28.3266 42.2542 28.0692 42.2979C26.6671 42.5339 25.5486 42.8879 24.8101 43.2839C24.5384 43.4157 24.2918 43.5951 24.0815 43.8139C24.0338 43.8666 23.9958 43.9276 23.9692 43.9939V43.9999L23.9732 44.0159L24.0047 44.0819C24.0819 44.1981 24.1785 44.2996 24.2902 44.3819C24.6151 44.6419 25.1468 44.9219 25.8912 45.1719C27.3701 45.6719 29.4752 45.9999 31.8462 45.9999C34.2171 45.9999 36.3222 45.6739 37.8011 45.1719C38.5455 44.9199 39.0772 44.6419 39.4021 44.3819C39.5145 44.2998 39.6118 44.1982 39.6896 44.0819L39.7191 44.0159L39.7231 43.9999V43.9919C39.6965 43.9256 39.6585 43.8646 39.6108 43.8119C39.4004 43.5938 39.1537 43.4151 38.8822 43.2839C38.1418 42.8879 37.0252 42.5339 35.6231 42.2979C35.4925 42.2799 35.3668 42.2355 35.2534 42.1672C35.14 42.099 35.0413 42.0083 34.963 41.9006C34.8848 41.7929 34.8286 41.6703 34.7979 41.5402C34.7671 41.41 34.7625 41.2749 34.7841 41.1428C34.8057 41.0108 34.8532 40.8845 34.9238 40.7714C34.9944 40.6584 35.0866 40.5609 35.1949 40.4847C35.3033 40.4085 35.4256 40.3552 35.5546 40.3279C35.6837 40.3006 35.8168 40.2999 35.9461 40.3258C37.4624 40.5798 38.8054 40.9818 39.7999 41.5138C40.7077 41.9998 41.6923 42.7999 41.6923 43.9999C41.6923 44.8519 41.1803 45.5039 40.621 45.9539C40.05 46.41 39.282 46.78 38.4234 47.0698C36.6944 47.656 34.3687 48 31.8462 48C29.3236 48 26.9979 47.656 25.2689 47.0698C24.4103 46.78 23.6423 46.41 23.0713 45.9539C22.512 45.5039 22 44.8519 22 43.9999C22 42.8019 22.9846 41.9998 23.8924 41.5138C24.8869 40.9818 26.2299 40.5798 27.7462 40.3258C28.0037 40.2825 28.2676 40.3447 28.4799 40.4988C28.6922 40.653 28.8356 40.8864 28.8785 41.1478Z" fill="#1A1A1A"/>
</g>
<defs>
<clipPath id="clip0_60_451">
<rect width="19.6923" height="32" fill="white" transform="translate(22 16)"/>
</clipPath>
</defs>
</svg>
