<svg width="64" height="64" viewBox="0 0 64 64" fill="none" xmlns="http://www.w3.org/2000/svg">
<rect width="64" height="64" rx="10" fill="white"/>
<rect width="64" height="64" rx="10" fill="#FFA8DB"/>
<path fill-rule="evenodd" clip-rule="evenodd" d="M28.2319 42.3613C28.2319 41.8573 28.4079 41.3773 28.7053 41.0213C28.8684 40.8197 29.0744 40.6568 29.3082 40.5446C29.542 40.4323 29.7979 40.3733 30.0573 40.372H43.2639C43.7679 40.372 44.2599 40.5933 44.6159 41.0213C44.9133 41.3773 45.0893 41.8573 45.0893 42.3613V43.352C45.0893 44.1187 44.8253 44.8507 44.3733 45.3933C43.8626 46.0067 43.1613 46.3333 42.4386 46.3333H30.8826C30.1599 46.3333 29.4586 46.0067 28.9479 45.3933C28.4801 44.8163 28.227 44.0948 28.2319 43.352V42.3613ZM28.8039 37.8V37.0667C28.8039 35.6293 29.3933 34.2507 30.4493 33.2347C31.5068 32.2249 32.9137 31.663 34.3759 31.6667H38.9466C40.4088 31.6632 41.8157 32.225 42.8733 33.2347C43.3915 33.7297 43.8043 34.3242 44.0871 34.9827C44.3698 35.6412 44.5166 36.35 44.5186 37.0667V37.8C44.5186 38.264 44.3293 38.7107 43.9879 39.0387C43.6565 39.3564 43.215 39.5336 42.7559 39.5333H30.5653C30.1026 39.5333 29.6613 39.3533 29.3333 39.0387C29.166 38.8786 29.0329 38.6863 28.942 38.4734C28.851 38.2606 28.804 38.0315 28.8039 37.8ZM27.6666 24C27.6666 24.2652 27.5612 24.5196 27.3737 24.7071C27.1862 24.8946 26.9318 25 26.6666 25C26.4014 25 26.147 24.8946 25.9595 24.7071C25.7719 24.5196 25.6666 24.2652 25.6666 24V20.9027C25.6666 20.8361 25.6466 20.7711 25.6093 20.7159C25.572 20.6608 25.519 20.6181 25.4573 20.5933L22.9613 19.5947C22.8367 19.5477 22.7228 19.4764 22.6262 19.3849C22.5296 19.2934 22.4523 19.1835 22.3987 19.0617C22.3451 18.9399 22.3163 18.8086 22.3141 18.6756C22.3119 18.5425 22.3363 18.4104 22.3858 18.2869C22.4353 18.1633 22.5089 18.0509 22.6025 17.9563C22.696 17.8616 22.8074 17.7865 22.9303 17.7355C23.0532 17.6844 23.185 17.6584 23.3181 17.6589C23.4512 17.6595 23.5828 17.6866 23.7053 17.7387L26.1999 18.736C26.6329 18.9092 27.0041 19.2082 27.2655 19.5944C27.5269 19.9806 27.6666 20.4363 27.6666 20.9027V24Z" fill="#1C1C1C"/>
<path fill-rule="evenodd" clip-rule="evenodd" d="M44.6667 37.5333C44.932 37.5333 45.1863 37.6387 45.3739 37.8262C45.5614 38.0138 45.6667 38.2681 45.6667 38.5333C45.6667 38.7985 45.5614 39.0529 45.3739 39.2404C45.1863 39.428 44.932 39.5333 44.6667 39.5333H28.6667C28.4015 39.5333 28.1472 39.428 27.9596 39.2404C27.7721 39.0529 27.6667 38.7985 27.6667 38.5333C27.6667 38.2681 27.7721 38.0138 27.9596 37.8262C28.1472 37.6387 28.4015 37.5333 28.6667 37.5333H44.6667Z" fill="#1C1C1C"/>
<path fill-rule="evenodd" clip-rule="evenodd" d="M27.9974 46.3333H23.0174C21.3067 46.3333 19.836 44.94 19.6814 43.064L18.3467 26.9027C18.2627 25.9292 18.5611 24.9612 19.1787 24.204C19.4812 23.8308 19.8627 23.5293 20.2956 23.3211C20.7286 23.1129 21.2023 23.0033 21.6827 23H32.984C33.9347 23 34.8467 23.4307 35.488 24.204C36.096 24.936 36.4014 25.9147 36.32 26.9027L36.0373 30.3333H34.376C32.5692 30.3302 30.8311 31.0258 29.5254 32.2747C28.3547 33.3942 27.6322 34.9021 27.4934 36.516C27.1464 36.7187 26.8576 37.0074 26.6549 37.3544C26.4522 37.7013 26.3424 38.0946 26.3361 38.4963C26.3298 38.8981 26.4272 39.2947 26.619 39.6478C26.8107 40.0009 27.0903 40.2985 27.4307 40.512C27.083 41.0662 26.8987 41.7071 26.8987 42.3613V43.352C26.8987 44.4413 27.2814 45.4773 27.9227 46.2467L27.9974 46.3333Z" fill="#1C1C1C"/>
</svg>
