<svg width="64" height="64" viewBox="0 0 64 64" fill="none" xmlns="http://www.w3.org/2000/svg">
<rect width="64" height="64" rx="10" fill="white"/>
<rect width="64" height="64" rx="10" fill="#FFA8DB"/>
<g clip-path="url(#clip0_60_410)">
<path d="M33.2434 24.3871C33.2434 22.8832 34.5379 21.6774 36.1525 21.6774H41.2434C42.8433 21.6774 44.1525 22.8968 44.1525 24.3871V27.3136C42.4653 27.869 41.2434 29.3594 41.2434 31.1207V33.871H33.2434V24.3871ZM23.7888 31.1071V33.871H31.7888V24.3871C31.7888 22.8832 30.4943 21.6774 28.8798 21.6774H23.7888C22.1888 21.6774 20.8798 22.8968 20.8798 24.3871V27.3C22.567 27.8555 23.7888 29.3594 23.7888 31.1071ZM45.1125 28.4923C43.687 28.709 42.698 29.969 42.698 31.3239V35.2258H22.3343V31.1613C22.3343 30.4426 22.0278 29.7534 21.4822 29.2453C20.9367 28.7371 20.1967 28.4516 19.4252 28.4516C18.6537 28.4516 17.9137 28.7371 17.3682 29.2453C16.8226 29.7534 16.5161 30.4426 16.5161 31.1613V37.9355C16.5161 39.4258 17.8252 40.6452 19.4252 40.6452V43.3548H22.3343V40.6452H42.698V43.3548H45.607V40.6452C47.207 40.6452 48.5161 39.4258 48.5161 37.9355V31.1613C48.5161 29.5219 46.9306 28.2078 45.1125 28.4923Z" fill="#1A1A1A"/>
</g>
<defs>
<clipPath id="clip0_60_410">
<rect width="32" height="21.6774" fill="white" transform="translate(16.5161 21.6774)"/>
</clipPath>
</defs>
</svg>
