<svg width="64" height="64" viewBox="0 0 64 64" fill="none" xmlns="http://www.w3.org/2000/svg">
<rect width="64" height="64" rx="10" fill="white"/>
<rect width="64" height="64" rx="10" fill="#FFA8DB"/>
<g clip-path="url(#clip0_60_466)">
<path d="M28.6502 25.9764L28.6422 26.9502L28.3354 27.0756C26.2438 27.932 24.6511 29.8261 24.1629 32.0431C23.9895 32.8248 24.0001 32.4353 24.0001 38.7394C24.0001 44.2218 24.0028 44.4672 24.0481 44.622C24.2162 45.1662 24.6297 45.5477 25.1793 45.6624C25.4461 45.7184 36.7391 45.7211 37.0058 45.6651C37.2673 45.6091 37.5207 45.4783 37.7128 45.2969C37.9236 45.1022 38.0223 44.9474 38.1103 44.6833L38.1797 44.4752L38.1717 38.7074C38.1637 32.3045 38.1797 32.8301 37.9876 32.0298C37.4967 29.9649 36.0854 28.1934 34.1806 27.2437C33.9512 27.1316 33.7137 27.0196 33.6524 26.9955L33.5376 26.9529V25.9764V25H31.0966H28.6555L28.6502 25.9764Z" fill="#1A1A1A"/>
</g>
<g clip-path="url(#clip1_60_466)">
<path d="M23.9117 19.0193C23.4275 19.1135 23.0321 19.5735 23.0025 20.0684C22.9729 20.5687 23.2043 20.9749 23.6373 21.1874L23.8418 21.2896L26.026 21.2977C28.1161 21.3031 28.2102 21.3058 28.2237 21.3542C28.229 21.3811 28.3608 21.9003 28.5115 22.5109L28.7885 23.6164H31.2391H33.6896L33.9559 22.5458C34.1038 21.9594 34.2329 21.4376 34.2464 21.3892L34.2706 21.3031H36.1401H38.0069L38.5261 21.6286C39.6451 22.336 39.7123 22.3764 39.8764 22.4167C40.0808 22.4705 40.3444 22.4705 40.5489 22.4167C41.2375 22.2392 41.5818 21.4752 41.2644 20.8323C41.1326 20.5687 40.9873 20.4504 40.1185 19.8989C39.6746 19.6165 39.2281 19.3314 39.1232 19.2641C39.021 19.1969 38.8623 19.1081 38.7735 19.0705L38.6121 19.0032L31.3224 19.0005C27.1907 18.9978 23.9817 19.0059 23.9117 19.0193Z" fill="#1A1A1A"/>
</g>
<g clip-path="url(#clip2_60_466)">
<path d="M40.6331 25.4358C39.7885 26.6839 39.229 27.7276 39.0488 28.3893C38.9842 28.6179 38.9842 29.0403 39.0461 29.277C39.1079 29.5029 39.2478 29.8015 39.3823 29.9817C39.7885 30.5332 40.5524 30.8398 41.2437 30.7322C41.701 30.6596 42.0077 30.5036 42.352 30.1619C42.5457 29.9683 42.6021 29.8903 42.707 29.6778C42.9384 29.1936 42.9734 28.7201 42.8066 28.2279C42.6882 27.8836 42.352 27.203 42.0453 26.6946C41.7521 26.2051 40.9694 25 40.9452 25C40.9371 25 40.7945 25.1964 40.6331 25.4358Z" fill="#1A1A1A"/>
</g>
<defs>
<clipPath id="clip0_60_466">
<rect width="14.2969" height="20.8772" fill="white" transform="translate(24 25)"/>
</clipPath>
<clipPath id="clip1_60_466">
<rect width="18.3838" height="4.61646" fill="white" transform="translate(23 19)"/>
</clipPath>
<clipPath id="clip2_60_466">
<rect width="3.91016" height="5.75366" fill="white" transform="translate(39 25)"/>
</clipPath>
</defs>
</svg>
