<svg width="120" height="120" viewBox="0 0 120 120" fill="none" xmlns="http://www.w3.org/2000/svg">
<circle cx="60" cy="60" r="60" fill="#1A1A1A"/>
<circle cx="60" cy="60" r="60" fill="white" fill-opacity="0.01"/>
<circle cx="60" cy="60" r="59.5" stroke="white" stroke-opacity="0.1"/>
<g clip-path="url(#clip0_37_198)">
<path d="M65.2186 70.3942C63.3632 73.6312 60.3694 75.4645 56.4718 75.8967C54.0492 76.1663 51.7127 75.9307 49.5088 74.9C46.5454 73.514 44.4515 71.3719 43.3595 68.3819C43.0069 67.418 43.0666 66.4717 43.606 65.5897C44.0274 64.903 44.5257 64.2591 44.9776 63.5888C45.5078 62.795 46.0591 62.0074 46.5494 61.1947C46.7946 60.7827 47.0027 60.3203 46.7774 59.8301C46.5507 59.5781 46.2897 59.6222 46.0432 59.7394C45.7967 59.8566 45.5515 60.0166 45.3063 60.1577C44.7219 60.4916 44.1387 60.8293 43.5516 61.1657C43.4163 61.2364 43.2754 61.2971 43.1302 61.3472C41.9189 61.7869 41.2112 61.3749 41.2178 60.1287C41.2188 58.9548 41.3003 57.7822 41.4617 56.6183C41.8513 53.8853 42.7697 51.3149 44.3587 48.9901C46.0418 46.5293 48.2564 44.6683 51.2051 43.6867C53.1533 43.0378 55.1651 42.903 57.2086 43.0983C58.9395 43.2646 60.5908 43.6817 62.1042 44.5208C62.9377 44.9635 63.6938 45.5268 64.3453 46.1904C64.1147 47.1618 63.8894 48.1182 63.6349 49.1905C63.3781 48.348 62.9282 47.57 62.3176 46.9124C58.8719 43.2835 52.4734 42.3297 48.2869 47.0976C46.6965 48.9082 45.7688 51.0238 45.1565 53.2805C44.6344 55.1995 44.4515 57.1601 44.3998 59.1358C44.3964 59.3043 44.4057 59.4727 44.4276 59.6398C44.4476 59.7143 44.4779 59.7859 44.5178 59.8528C44.8279 60.004 45.0572 59.844 45.2705 59.7104C45.5846 59.5151 45.8735 59.2858 46.1797 59.0804C46.5229 58.8511 46.8741 58.6318 47.3154 58.6129C47.6335 58.5991 47.937 58.6129 48.1729 58.9002C48.3863 59.3538 48.202 59.7822 47.9688 60.1943C47.6894 60.6948 47.3797 61.1795 47.0411 61.6458C45.3315 63.9592 45.2626 66.4125 46.3785 68.9401C47.3295 71.1543 49.0543 72.989 51.2621 74.1352C54.6204 75.9143 58.9487 75.3876 61.6112 71.9339C62.8808 70.2858 63.5779 68.4222 63.9252 66.4377C64.4182 63.6152 64.2127 60.8369 63.179 58.1316C62.6534 56.7016 61.8074 55.3972 60.6994 54.3087C58.9964 52.6581 56.9091 51.9739 54.5236 52.1062C52.3435 52.2322 50.4431 53.0046 48.9972 54.5972C48.4565 55.192 48.0563 55.9026 47.5394 56.641L47.1418 56.4747C47.4422 55.615 47.9038 54.8142 48.5042 54.1109C49.7261 52.6404 51.3443 51.737 53.2235 51.2582C55.7919 50.603 58.3365 50.6282 60.7776 51.7357C62.7533 52.6252 64.3558 54.1221 65.326 55.9845C67.8758 60.7877 67.9355 65.6577 65.2186 70.3942Z" fill="white"/>
<path d="M37.6909 61.9583C37.5297 65.2734 36.2958 68.4602 34.1577 71.0834C32.8391 72.7214 31.2328 74.0495 29.2542 74.9315C27.9719 75.5022 26.583 75.8243 25.1683 75.879C23.3461 75.9572 21.5503 75.8047 19.8248 75.2138C16.2121 73.9777 14.0744 71.5395 13.3694 67.9573C13.3217 67.7053 13.2899 67.4608 13.2581 67.2113C13.2606 67.1289 13.2721 67.047 13.2925 66.9669L16.1339 66.5977C16.1883 66.8913 16.2426 67.1521 16.2837 67.4167C16.5023 68.8368 16.9026 70.2039 17.6222 71.4753C18.8719 73.6803 20.8175 74.8672 23.4296 75.1293C26.7627 75.4569 29.3483 74.183 31.4276 71.8029C33.2936 69.6608 34.3273 67.1698 34.8363 64.4645C35.1861 62.611 35.2643 60.7474 34.7037 58.9204C34.507 58.2776 34.2316 57.6589 33.8834 57.077C33.2327 55.9934 32.2135 55.3948 30.9041 55.2046C29.4808 54.9979 28.1383 55.2411 26.8408 55.7741C25.4334 56.3525 24.181 57.1727 22.9631 58.0422C22.6463 58.2702 22.3375 58.5096 22.0142 58.7263C21.6066 59.0226 21.1019 59.1721 20.5895 59.1485C20.3224 59.1426 20.0657 59.0489 19.8632 58.8832C19.6607 58.7175 19.5249 58.4902 19.4789 58.24C19.4101 57.941 19.4065 57.6318 19.4683 57.3314C19.5301 57.0311 19.6559 56.7459 19.8381 56.4936C20.3748 55.7262 20.8983 54.9463 21.5291 54.2457C22.7974 52.8231 24.132 51.451 25.4347 50.0561C26.593 48.8179 27.7487 47.5777 28.9017 46.3353C28.9321 46.3038 28.9613 46.2735 28.9891 46.2408C29.7671 45.3588 29.6067 44.7565 28.459 44.3507C27.3736 43.9639 26.2286 43.8392 25.0822 43.7913C22.1176 43.6653 19.1768 43.8644 16.2784 44.507C15.1585 44.759 14.0599 45.0564 13.0102 45.7821C13.0102 44.8308 12.9983 43.9715 13.0208 43.1197C13.5509 42.9937 36.2516 42.9698 36.9143 43.0932V43.3755C36.8613 43.4158 36.8308 43.4599 36.7937 43.4649C35.3558 43.6338 34.1802 44.323 33.1094 45.1899C29.4755 48.1283 25.9927 51.2166 22.8027 54.5935C22.1865 55.2474 21.6391 55.9631 21.0799 56.6687C20.775 57.0556 20.6624 57.4928 20.9301 57.9502C21.4019 58.1518 21.7571 57.9502 22.0977 57.6982C22.7047 57.2458 23.2984 56.7746 23.9226 56.3449C25.4162 55.3167 27.0211 54.4977 28.8261 54.0769C30.1346 53.7569 31.5047 53.7392 32.8218 54.0252C34.6772 54.4309 35.9203 55.5523 36.746 57.1362C37.5425 58.6495 37.7837 60.285 37.6909 61.9583Z" fill="white"/>
<path d="M73.7085 56.7002C73.6861 56.853 73.6746 57.0071 73.674 57.1614C74.049 57.3617 74.3433 57.2357 74.6017 57.0845C75.0867 56.7972 75.5612 56.4885 76.0171 56.1597C76.5618 55.7678 77.068 55.3255 77.6167 54.9387C79.7994 53.399 82.2671 52.7967 84.9641 52.9441C87.4556 53.0827 89.5151 54.0277 91.0829 55.8875C91.3956 56.2567 91.6488 56.6738 91.9907 57.1563C91.4314 57.2508 90.9782 57.203 90.5329 57.2105C90.0876 57.2181 89.6052 57.2105 89.1837 57.2105C88.7928 56.7431 88.4668 56.2907 88.0745 55.8976C86.9692 54.7913 85.571 54.286 83.99 54.2167C81.5594 54.1109 79.3899 54.8303 77.406 56.1294C76.3166 56.8426 75.2299 57.5596 74.1113 58.2299C73.5006 58.6146 72.7968 58.8448 72.0664 58.899C71.042 58.9582 70.5556 58.5688 70.5689 57.6011C70.5876 57.0785 70.6676 56.5596 70.8074 56.0538C71.5827 53.0625 72.3978 50.0788 73.1598 47.085C73.4977 45.762 73.7575 44.4213 74.0663 43.0277H92.3551C92.5261 43.5531 92.5327 45.1408 92.371 45.6385C90.1273 44.2827 87.6 43.9841 85.033 43.8946C83.1948 43.8316 81.3712 43.979 79.5993 44.4994C79.0321 44.6681 78.4836 44.8888 77.9613 45.1584C77.2769 45.5146 76.7608 46.1053 76.518 46.8103C75.4902 49.6013 74.6596 52.4545 74.0318 55.3507C73.9258 55.8018 73.8065 56.2491 73.7085 56.7002Z" fill="white"/>
<path d="M90.0359 71.7827C90.0164 71.856 89.9874 71.9266 89.9497 71.9931C88.1871 74.0167 86.0388 75.4683 83.2398 75.7845C80.022 76.1487 76.9461 75.7203 74.2094 73.9134C71.9789 72.4404 70.7941 70.3539 70.3223 67.8565C70.2799 67.6309 70.2494 67.4016 70.2163 67.1735C70.2205 67.1026 70.2315 67.0321 70.2494 66.9631L73.1173 66.6028C73.2022 67.1068 73.2697 67.5528 73.3572 68.0001C73.6475 69.4744 74.1338 70.8805 75.0085 72.1456C76.2848 73.9915 78.0964 74.9693 80.3998 75.1281C81.4799 75.2012 82.5573 75.1898 83.6109 74.8761C85.139 74.43 86.345 73.5493 87.3681 72.4115C87.5549 72.2048 87.7338 71.9931 87.922 71.7814L90.0359 71.7827Z" fill="white"/>
<path d="M83.7765 62.1032C83.5115 62.6904 83.2371 63.2839 82.9363 63.8849L83.7765 62.1032Z" fill="white"/>
<path d="M107.999 70.3841L107.83 70.4042H107.312L104.231 66.231V70.4042H103.611V65.3289H104.256L107.357 69.5285V65.3503L107.958 65.2986C108.04 67.0072 107.972 68.6742 107.999 70.3841Z" fill="white"/>
<path d="M95.8564 63.7412L95.2905 63.7778L92.1735 59.5592V63.7375H91.5652V58.6646L92.1788 58.6218L95.2905 62.8491V58.6911L95.7756 58.6356C95.9823 58.773 96.0155 62.9978 95.8564 63.7412Z" fill="white"/>
<path d="M101.281 66.6532C101.144 66.2951 100.917 65.9748 100.618 65.7207C100.194 65.3805 99.656 65.1948 99.1008 65.1966C98.0631 65.1852 97.2706 65.5897 96.8041 66.5007C96.4595 67.1723 96.4343 67.8867 96.5775 68.5923C96.824 69.807 97.8087 70.5592 99.0531 70.534C99.5379 70.5319 100.011 70.3928 100.413 70.1346C101.162 69.6432 101.359 68.8872 101.443 68.5659C101.6 67.9279 101.544 67.259 101.281 66.6532ZM100.692 68.8821C100.574 69.2116 100.347 69.496 100.046 69.6931C99.7438 69.8901 99.3832 69.9893 99.0173 69.9758C98.6505 69.9982 98.2862 69.9046 97.9813 69.7095C97.6763 69.5144 97.4479 69.2288 97.3316 68.8973C96.9804 68.043 97.0241 66.6217 97.965 66.0257C98.3038 65.8242 98.699 65.7257 99.0982 65.7434C99.8761 65.785 100.423 66.1567 100.688 66.8598C100.956 67.5096 100.958 68.2314 100.692 68.8821Z" fill="white"/>
<path d="M87.9923 65.3276H87.4025L85.2344 70.408H85.9063L86.5437 68.9325H88.855L89.4991 70.4156H90.1737C89.4342 68.6893 88.7159 67.0148 87.9923 65.3276ZM86.826 68.305C86.8446 68.2597 86.8645 68.2156 86.8843 68.1702C87.1096 67.6393 87.3358 67.1084 87.5629 66.5776L87.7113 66.2298C87.7113 66.2436 87.7232 66.2588 87.7285 66.2726C88.0139 66.9505 88.2984 67.628 88.582 68.305H86.826Z" fill="white"/>
<path d="M83.0437 70.2014C82.5864 70.4621 82.053 70.5761 81.5223 70.5264C81.089 70.4962 80.6622 70.3929 80.1745 70.3122V69.7767C80.2404 69.7676 80.3074 69.7676 80.3733 69.7767C80.9362 69.9667 81.5391 70.0246 82.1306 69.9456C82.6607 69.8712 82.9722 69.5865 83.0278 69.1606C83.0782 68.7725 82.9563 68.5091 82.5786 68.3365C82.3158 68.233 82.0451 68.1488 81.7688 68.0845C81.5581 68.0228 81.3394 67.9862 81.134 67.9144C80.4714 67.6801 80.1414 67.2454 80.1626 66.6418C80.1677 66.3461 80.2707 66.0594 80.457 65.8226C80.6433 65.5857 80.9034 65.4108 81.2003 65.3226C81.8841 65.1021 82.6581 65.1575 83.4877 65.499C83.4957 65.6363 83.5036 65.7925 83.5129 65.9916C83.3124 65.9272 83.1068 65.8783 82.898 65.8455C82.4637 65.7938 82.0254 65.7803 81.5886 65.8051C81.1261 65.8543 80.8862 66.163 80.8637 66.5738C80.8411 66.9845 81.0081 67.2189 81.4481 67.384C81.6509 67.4608 81.8695 67.5024 82.0789 67.5641C82.3519 67.6448 82.6302 67.7128 82.894 67.8161C83.3804 68.0064 83.6746 68.3416 83.7037 68.862C83.7422 69.4214 83.5818 69.8901 83.0437 70.2014Z" fill="white"/>
<path d="M95.1104 69.8801V70.4055H91.9045V65.3188H92.5022V69.8801H95.1104Z" fill="white"/>
<path d="M88.8829 63.7374H88.272V58.6696L88.8524 58.6293C88.9108 60.3341 88.863 61.9986 88.8829 63.7374Z" fill="white"/>
<path d="M99.1589 63.7198H98.5957V58.6646L99.1073 58.6394C99.2252 59.1233 99.261 62.795 99.1589 63.7198Z" fill="white"/>
<path d="M85.5498 58.6583V63.7274H84.9971V59.5189C84.5598 60.3644 84.1754 61.2262 83.7765 62.1045L82.9363 63.8861L80.8808 59.534H80.7814V63.7186H80.1824V58.6583H81.1101L81.4865 59.5277L82.8608 62.6954L82.9509 62.4913L84.6406 58.6558L85.5498 58.6583Z" fill="white"/>
<path d="M84.9972 59.5189L83.7766 62.1045C84.1755 61.225 84.5598 60.3631 84.9972 59.5189Z" fill="white"/>
</g>
<defs>
<clipPath id="clip0_37_198">
<rect width="95" height="33" fill="white" transform="translate(13 43)"/>
</clipPath>
</defs>
</svg>
