<svg width="250" height="91" viewBox="0 0 250 91" fill="none" xmlns="http://www.w3.org/2000/svg">
<g clip-path="url(#clip0_10_828)">
<path d="M137.417 74.9909C132.535 83.852 124.656 88.8707 114.399 90.0538C108.024 90.7919 101.876 90.1469 96.0757 87.3254C88.2775 83.5312 82.7671 77.6675 79.8934 69.4824C78.9657 66.8437 79.1226 64.2533 80.5421 61.8388C81.6511 59.959 82.9624 58.1964 84.1517 56.3614C85.5467 54.1884 86.9976 52.0326 88.288 49.8078C88.9332 48.6799 89.4807 47.414 88.8878 46.0722C88.2915 45.3824 87.6044 45.5031 86.9557 45.8239C86.307 46.1447 85.6618 46.5827 85.0166 46.969C83.4786 47.8831 81.9441 48.8075 80.3991 49.7285C80.0428 49.9219 79.672 50.0879 79.29 50.2252C76.1024 51.429 74.24 50.301 74.2574 46.8897C74.2601 43.6761 74.4745 40.4661 74.8992 37.2801C75.9245 29.7986 78.3414 22.7621 82.523 16.3982C86.9522 9.66184 92.78 4.56729 100.54 1.88032C105.667 0.103949 110.961 -0.265116 116.339 0.269519C120.893 0.724822 125.239 1.86652 129.222 4.16373C131.415 5.37559 133.405 6.91744 135.119 8.734C134.512 11.3934 133.919 14.0114 133.25 16.9467C132.574 14.6403 131.39 12.5106 129.783 10.7104C120.715 0.776568 103.877 -1.83453 92.8602 11.2175C88.6751 16.1741 86.2338 21.9654 84.6225 28.143C83.2484 33.3962 82.7671 38.7633 82.6311 44.1717C82.6221 44.6327 82.6466 45.0938 82.7044 45.5514C82.7569 45.7553 82.8366 45.9513 82.9415 46.1343C83.7576 46.5483 84.361 46.1102 84.9225 45.7446C85.749 45.2099 86.5093 44.5822 87.3149 44.02C88.2182 43.3922 89.1424 42.792 90.3038 42.7403C91.1408 42.7023 91.9395 42.7403 92.5603 43.5267C93.1218 44.7684 92.637 45.9412 92.0232 47.0691C91.288 48.4393 90.4729 49.7661 89.5819 51.0426C85.0829 57.3755 84.9015 64.0912 87.8381 71.0104C90.3407 77.0716 94.8796 82.0942 100.69 85.2317C109.527 90.1021 120.918 88.6603 127.924 79.2059C131.265 74.6942 133.1 69.5928 134.014 64.1602C135.311 56.4338 134.77 48.8282 132.05 41.4226C130.667 37.5081 128.441 33.9374 125.525 30.9576C121.043 26.4391 115.55 24.5661 109.273 24.9283C103.536 25.2732 98.5345 27.3876 94.7295 31.7475C93.3066 33.3755 92.2533 35.3209 90.8932 37.3422L89.8469 36.8869C90.6374 34.5336 91.8521 32.3414 93.4321 30.416C96.6477 26.3908 100.906 23.9176 105.851 22.6069C112.61 20.8133 119.306 20.8823 125.731 23.9142C130.93 26.349 135.147 30.4468 137.7 35.5451C144.41 48.6937 144.567 62.0251 137.417 74.9909Z" fill="white"/>
<path d="M64.9772 51.898C64.553 60.9729 61.3058 69.6968 55.6793 76.8776C52.2092 81.3616 47.9823 84.9971 42.7753 87.4116C39.401 88.9739 35.7458 89.8556 32.0231 90.0054C27.2277 90.2193 22.502 89.802 17.9612 88.1843C8.45406 84.8005 2.8286 78.1262 0.973204 68.3199C0.847652 67.6301 0.763951 66.961 0.680249 66.278C0.686873 66.0525 0.717267 65.8282 0.77093 65.6088L8.2483 64.5982C8.39129 65.4019 8.53428 66.1159 8.64239 66.8402C9.21784 70.7276 10.2711 74.47 12.1648 77.9503C15.4536 83.9865 20.5734 87.2357 27.4474 87.9532C36.2187 88.85 43.0229 85.3628 48.4949 78.8471C53.4054 72.9834 56.1257 66.1642 57.465 58.7586C58.3857 53.6847 58.5915 48.5833 57.1162 43.5819C56.5984 41.8221 55.8739 40.1285 54.9574 38.5356C53.245 35.5692 50.5631 33.9308 47.1173 33.41C43.3717 32.8443 39.8388 33.51 36.4244 34.9691C32.7206 36.5523 29.4249 38.7977 26.2198 41.1777C25.3862 41.8021 24.5736 42.4574 23.7227 43.0507C22.6501 43.8616 21.322 44.271 19.9735 44.2062C19.2706 44.1902 18.5951 43.9336 18.0622 43.48C17.5292 43.0265 17.1718 42.4042 17.0509 41.7192C16.8699 40.9008 16.8604 40.0544 17.023 39.2321C17.1856 38.4099 17.5167 37.6293 17.9961 36.9386C19.4085 34.838 20.7861 32.7029 22.4462 30.7851C25.7838 26.8909 29.2958 23.1346 32.7241 19.3163C35.7723 15.9268 38.8134 12.5316 41.8476 9.13064C41.9278 9.04441 42.0046 8.96162 42.0778 8.87194C44.125 6.45746 43.703 4.80871 40.6828 3.69805C37.8264 2.63913 34.8132 2.29765 31.7964 2.16658C23.9947 1.82165 16.2558 2.36663 8.62844 4.12576C5.68144 4.81561 2.79024 5.62963 0.0280741 7.61641C0.0280741 5.01222 -0.00330809 2.65982 0.0559807 0.328118C1.45101 -0.0168085 61.1897 -0.082331 62.9335 0.255697V1.02833C62.794 1.1387 62.7138 1.25944 62.6161 1.27323C58.8321 1.73543 55.7386 3.62218 52.9207 5.99527C43.3577 14.0389 34.1924 22.4931 25.7978 31.7371C24.1761 33.5273 22.7357 35.4864 21.2639 37.418C20.4618 38.477 20.1653 39.6739 20.8698 40.9259C22.1114 41.4778 23.0461 40.9259 23.9424 40.2361C25.5397 38.9978 27.1021 37.7078 28.7448 36.5316C32.6753 33.717 36.8987 31.475 41.6488 30.3229C45.0923 29.447 48.6976 29.3985 52.1639 30.1815C57.0465 31.2922 60.3178 34.362 62.4906 38.6977C64.5866 42.8403 65.2214 47.3174 64.9772 51.898Z" fill="white"/>
<path d="M159.759 37.5041C159.7 37.9224 159.67 38.3442 159.668 38.7665C160.655 39.315 161.429 38.9701 162.109 38.5561C163.386 37.7697 164.634 36.9246 165.834 36.0244C167.268 34.9516 168.6 33.741 170.044 32.682C175.788 28.467 182.282 26.8183 189.379 27.2218C195.935 27.6013 201.355 30.1882 205.481 35.2793C206.304 36.29 206.97 37.4317 207.87 38.7527C206.398 39.0114 205.205 38.8804 204.034 38.9011C202.862 38.9218 201.592 38.9011 200.483 38.9011C199.454 37.6214 198.597 36.3831 197.564 35.3069C194.656 32.2785 190.976 30.8953 186.815 30.7056C180.419 30.4159 174.71 32.3854 169.489 35.9416C166.622 37.8939 163.763 39.8565 160.819 41.6915C159.212 42.7446 157.36 43.3749 155.438 43.523C152.742 43.6852 151.462 42.6194 151.497 39.9703C151.546 38.5397 151.757 37.119 152.125 35.7346C154.165 27.5461 156.31 19.3782 158.315 11.1828C159.204 7.56107 159.888 3.89105 160.701 0.0761719H208.829C209.279 1.51451 209.296 5.86059 208.871 7.22305C202.966 3.51165 196.316 2.69416 189.56 2.44926C184.723 2.2768 179.924 2.68036 175.261 4.10491C173.769 4.56674 172.325 5.17091 170.951 5.90888C169.149 6.88398 167.791 8.50089 167.153 10.4309C164.448 18.0711 162.262 25.8815 160.61 33.81C160.331 35.0448 160.017 36.2693 159.759 37.5041Z" fill="white"/>
<path d="M202.726 78.7912C202.675 78.9918 202.598 79.1852 202.499 79.3673C197.861 84.9068 192.207 88.8803 184.841 89.7461C176.374 90.7429 168.279 89.5702 161.077 84.6239C155.208 80.5918 152.09 74.8798 150.848 68.0434C150.736 67.426 150.656 66.7982 150.569 66.1739C150.58 65.9796 150.609 65.7867 150.656 65.5978L158.203 64.6113C158.427 65.991 158.604 67.2121 158.835 68.4366C159.598 72.4722 160.878 76.3216 163.18 79.7846C166.539 84.8378 171.306 87.5144 177.368 87.949C180.21 88.1491 183.045 88.1181 185.818 87.2592C189.839 86.0381 193.013 83.6271 195.705 80.5124C196.197 79.9467 196.668 79.3673 197.163 78.7878L202.726 78.7912Z" fill="white"/>
<path d="M186.254 52.2939C185.557 53.9013 184.835 55.5259 184.043 57.1712L186.254 52.2939Z" fill="white"/>
<path d="M249.997 74.9632L249.554 75.0184H248.19L240.081 63.5945V75.0184H238.449V61.1248H240.148L248.309 72.6211V61.1834L249.888 61.042C250.105 65.7192 249.927 70.2826 249.997 74.9632Z" fill="white"/>
<path d="M218.043 56.778L216.554 56.8781L208.351 45.3299V56.7677H206.75V42.8809L208.365 42.7637L216.554 54.336V42.9534L217.831 42.8016C218.375 43.1776 218.462 54.743 218.043 56.778Z" fill="white"/>
<path d="M232.318 64.7497C231.958 63.7696 231.359 62.8927 230.574 62.1972C229.457 61.2659 228.042 60.7574 226.581 60.7624C223.85 60.7313 221.764 61.8385 220.537 64.3323C219.63 66.1708 219.564 68.1265 219.94 70.0581C220.589 73.3832 223.18 75.4424 226.455 75.3734C227.731 75.3675 228.977 74.9869 230.033 74.28C232.004 72.9348 232.524 70.8652 232.743 69.9857C233.159 68.2393 233.01 66.4081 232.318 64.7497ZM230.769 70.8514C230.458 71.7534 229.861 72.5319 229.067 73.0714C228.273 73.6108 227.324 73.8822 226.361 73.8454C225.396 73.9067 224.437 73.6503 223.635 73.1162C222.832 72.5821 222.231 71.8003 221.925 70.8928C221.001 68.5542 221.116 64.6635 223.592 63.032C224.483 62.4804 225.524 62.2109 226.574 62.2593C228.621 62.3731 230.061 63.3907 230.759 65.3154C231.463 67.0943 231.467 69.0699 230.769 70.8514Z" fill="white"/>
<path d="M197.348 61.1211H195.796L190.09 75.0285H191.859L193.536 70.9894H199.618L201.313 75.0492H203.089C201.142 70.3237 199.252 65.7397 197.348 61.1211ZM194.279 69.2717C194.328 69.1475 194.38 69.0268 194.432 68.9026C195.025 67.4494 195.62 65.9961 196.218 64.5428L196.609 63.5908C196.609 63.6287 196.64 63.6701 196.654 63.708C197.405 65.5637 198.154 67.4183 198.9 69.2717H194.279Z" fill="white"/>
<path d="M184.325 74.4626C183.122 75.1765 181.718 75.4884 180.322 75.3525C179.181 75.2697 178.058 74.9869 176.775 74.7662V73.3002C176.948 73.2753 177.125 73.2753 177.298 73.3002C178.779 73.8202 180.366 73.9787 181.923 73.7624C183.318 73.5589 184.137 72.7794 184.284 71.6135C184.416 70.5512 184.095 69.8303 183.101 69.3577C182.41 69.0744 181.697 68.8438 180.97 68.6679C180.416 68.4988 179.84 68.3988 179.3 68.2022C177.556 67.5606 176.688 66.3707 176.743 64.7185C176.757 63.909 177.028 63.1242 177.518 62.4759C178.008 61.8275 178.693 61.3486 179.474 61.1071C181.274 60.5035 183.311 60.6552 185.494 61.59C185.515 61.9659 185.536 62.3937 185.56 62.9386C185.032 62.7623 184.491 62.6284 183.942 62.5385C182.799 62.397 181.646 62.36 180.496 62.4282C179.279 62.5627 178.648 63.4077 178.588 64.5322C178.529 65.6567 178.969 66.2982 180.126 66.7501C180.66 66.9605 181.235 67.0743 181.787 67.2433C182.505 67.4641 183.237 67.6503 183.931 67.9332C185.211 68.454 185.986 69.3715 186.062 70.7961C186.163 72.3275 185.741 73.6107 184.325 74.4626Z" fill="white"/>
<path d="M216.08 73.583V75.0213H207.643V61.0967H209.216V73.583H216.08Z" fill="white"/>
<path d="M199.692 56.7675H198.084V42.8946L199.612 42.7842C199.765 47.451 199.639 52.0075 199.692 56.7675Z" fill="white"/>
<path d="M226.734 56.7199H225.252V42.8815L226.598 42.8125C226.909 44.137 227.003 54.1881 226.734 56.7199Z" fill="white"/>
<path d="M190.92 42.8643V56.7407H189.466V45.2202C188.315 47.5346 187.304 49.8939 186.254 52.298L184.043 57.1753L178.634 45.2615H178.372V56.7165H176.796V42.8643H179.237L180.227 45.2443L183.844 53.9157L184.081 53.357L188.528 42.8574L190.92 42.8643Z" fill="white"/>
<path d="M189.466 45.2197L186.254 52.2976C187.304 49.89 188.315 47.5307 189.466 45.2197Z" fill="white"/>
</g>
<defs>
<clipPath id="clip0_10_828">
<rect width="250" height="90.3361" fill="white"/>
</clipPath>
</defs>
</svg>
