<svg width="121" height="34" viewBox="0 0 121 34" fill="none" xmlns="http://www.w3.org/2000/svg">
<path d="M35.5459 23.0309V11.8418H39.3466V19.9306H47.5665V23.0346L35.5459 23.0309Z" fill="white"/>
<path d="M62.6811 11.8418V18.1439C62.6811 19.4606 62.4161 20.5083 61.8861 21.2869C61.3561 22.0654 60.5973 22.6169 59.6098 22.9411C58.6228 23.2649 57.389 23.4268 55.9085 23.4268C54.428 23.4268 53.1943 23.2649 52.2073 22.9411C51.2203 22.6173 50.4615 22.0686 49.931 21.295C49.4005 20.5213 49.1353 19.471 49.1353 18.1439V11.8418H52.936V18.0343C52.936 18.8383 53.1915 19.4182 53.7024 19.7739C54.2134 20.1296 54.9498 20.3074 55.9116 20.3074C56.8647 20.3074 57.599 20.1296 58.1146 19.7739C58.6303 19.4182 58.8873 18.8383 58.8857 18.0343V11.8418H62.6811Z" fill="white"/>
<path d="M81.4049 23.0309H77.6042V15.4123H77.5155L74.5083 23.0309H71.6421L68.5924 15.3181H68.4891V23.0309H64.895V11.8418H70.7284L73.0416 18.1277H73.1442L75.4128 11.8418H81.4088L81.4049 23.0309Z" fill="white"/>
<path d="M83.6133 23.0309V11.8418H87.414V23.0346L83.6133 23.0309Z" fill="white"/>
<path d="M102.655 12.9581C103.936 13.9393 104.577 15.4442 104.577 17.4727C104.577 19.5013 103.936 21.0062 102.655 21.9874C101.373 22.9686 99.471 23.4592 96.9485 23.4592C94.4337 23.4592 92.5358 22.9686 91.2547 21.9874C89.9737 21.0062 89.3321 19.5013 89.3301 17.4727C89.3301 15.4456 89.9709 13.9407 91.2524 12.9581C92.534 11.9754 94.4319 11.4849 96.9462 11.4863C99.4702 11.4849 101.373 11.9754 102.655 12.9581ZM99.5386 19.6598C100.117 19.1525 100.407 18.4235 100.408 17.4727C100.408 16.522 100.118 15.793 99.5386 15.2857C98.9598 14.7789 98.0956 14.5255 96.9462 14.5255C95.7967 14.5255 94.9349 14.7789 94.3607 15.2857C93.786 15.793 93.4986 16.522 93.4986 17.4727C93.4986 18.4235 93.786 19.1525 94.3607 19.6598C94.9354 20.1666 95.7972 20.42 96.9462 20.42C98.0951 20.42 98.9593 20.1666 99.5386 19.6598Z" fill="white"/>
<path d="M114.66 14.2911C114.242 14.0948 113.64 13.9967 112.855 13.9967C112.05 13.9967 111.475 14.0777 111.131 14.2395C110.788 14.4014 110.616 14.6391 110.616 14.9526C110.608 15.0625 110.633 15.1722 110.688 15.2692C110.742 15.3663 110.824 15.4468 110.924 15.5016C111.13 15.6164 111.483 15.7 111.984 15.7525L116.271 16.1286C117.568 16.2434 118.543 16.5725 119.196 17.1161C119.848 17.6597 120.175 18.4802 120.175 19.5776C120.175 20.6123 119.912 21.4117 119.387 21.9759C118.861 22.5401 118.09 22.9294 117.074 23.1437C116.056 23.3581 114.713 23.4653 113.045 23.4653C111.443 23.4653 110.146 23.3503 109.155 23.1202C108.164 22.8901 107.4 22.4773 106.864 21.8817C106.329 21.2866 106.042 20.4452 106.003 19.3576H110.427C110.535 19.9537 110.808 20.3641 111.245 20.5887C111.682 20.8134 112.333 20.9258 113.197 20.9258C114.081 20.9258 114.717 20.8394 115.105 20.6668C115.493 20.4941 115.687 20.2242 115.686 19.8573C115.686 19.5541 115.574 19.3333 115.348 19.195C115.122 19.0566 114.783 18.9678 114.332 18.9286L110.206 18.5055C108.9 18.3701 107.918 18.0512 107.261 17.5488C106.603 17.0464 106.274 16.2468 106.274 15.1498C106.274 14.2177 106.536 13.4835 107.062 12.9473C107.587 12.4111 108.338 12.0321 109.316 11.8104C110.292 11.5911 111.517 11.4814 112.991 11.4814C114.454 11.4814 115.672 11.5938 116.644 11.8185C117.616 12.0432 118.375 12.4325 118.92 12.9863C119.466 13.5402 119.753 14.2979 119.782 15.2595H115.406C115.377 15.0514 115.293 14.8538 115.162 14.6847C115.032 14.5155 114.859 14.3802 114.66 14.2911Z" fill="white"/>
<mask id="path-7-outside-1_17_931" maskUnits="userSpaceOnUse" x="-0.495117" y="4.66016" width="32" height="26" fill="black">
<rect fill="white" x="-0.495117" y="4.66016" width="32" height="26"/>
<path fill-rule="evenodd" clip-rule="evenodd" d="M16.9989 26.7866C16.5301 26.8437 16.0522 26.8731 15.567 26.8731C15.0781 26.8731 14.5965 26.8432 14.1242 26.7852C13.9007 27.9876 13.2537 28.8773 12.3326 29.1797C11.5659 29.4327 10.8329 29.2052 10.7525 29.1802L10.7508 29.1797C9.02406 28.6146 8.53313 26.1816 8.40582 24.3992C7.50558 23.6818 6.72623 22.8317 6.10101 21.8806C6.05174 22.0829 6.01295 22.2672 5.97747 22.4359C5.83171 23.1287 5.74176 23.5562 5.20991 23.872C4.41669 24.3433 3.41758 24.1069 3.36476 24.0936C2.34234 23.8365 1.89407 22.9804 1.78297 22.7639C0.695299 20.6793 3.13324 18.1314 3.36476 17.8943C3.71892 17.5333 4.08457 17.238 4.43792 16.9934C4.42083 16.7533 4.41215 16.5109 4.41215 16.2667C4.41215 10.4089 9.40634 5.66016 15.567 5.66016C21.7276 5.66016 26.7218 10.4089 26.7218 16.2667C26.7218 16.5154 26.7128 16.7622 26.6951 17.0067C27.0418 17.2486 27.3999 17.5397 27.7472 17.8943C27.9896 18.1314 30.4284 20.6793 29.3391 22.7639C29.2288 22.9789 28.7805 23.8351 27.7581 24.0936C27.7053 24.1069 26.7062 24.3433 25.913 23.872C25.384 23.5569 25.2941 23.1304 25.1486 22.4402C25.1134 22.2732 25.0749 22.0908 25.0262 21.8909C24.3993 22.8421 23.6182 23.6919 22.7161 24.4088C22.588 26.1903 22.0957 28.6156 20.3721 29.1797L20.3704 29.1802C20.29 29.2052 19.557 29.4327 18.7903 29.1797C17.8695 28.8774 17.2226 27.9883 16.9989 26.7866Z"/>
</mask>
<path fill-rule="evenodd" clip-rule="evenodd" d="M16.9989 26.7866C16.5301 26.8437 16.0522 26.8731 15.567 26.8731C15.0781 26.8731 14.5965 26.8432 14.1242 26.7852C13.9007 27.9876 13.2537 28.8773 12.3326 29.1797C11.5659 29.4327 10.8329 29.2052 10.7525 29.1802L10.7508 29.1797C9.02406 28.6146 8.53313 26.1816 8.40582 24.3992C7.50558 23.6818 6.72623 22.8317 6.10101 21.8806C6.05174 22.0829 6.01295 22.2672 5.97747 22.4359C5.83171 23.1287 5.74176 23.5562 5.20991 23.872C4.41669 24.3433 3.41758 24.1069 3.36476 24.0936C2.34234 23.8365 1.89407 22.9804 1.78297 22.7639C0.695299 20.6793 3.13324 18.1314 3.36476 17.8943C3.71892 17.5333 4.08457 17.238 4.43792 16.9934C4.42083 16.7533 4.41215 16.5109 4.41215 16.2667C4.41215 10.4089 9.40634 5.66016 15.567 5.66016C21.7276 5.66016 26.7218 10.4089 26.7218 16.2667C26.7218 16.5154 26.7128 16.7622 26.6951 17.0067C27.0418 17.2486 27.3999 17.5397 27.7472 17.8943C27.9896 18.1314 30.4284 20.6793 29.3391 22.7639C29.2288 22.9789 28.7805 23.8351 27.7581 24.0936C27.7053 24.1069 26.7062 24.3433 25.913 23.872C25.384 23.5569 25.2941 23.1304 25.1486 22.4402C25.1134 22.2732 25.0749 22.0908 25.0262 21.8909C24.3993 22.8421 23.6182 23.6919 22.7161 24.4088C22.588 26.1903 22.0957 28.6156 20.3721 29.1797L20.3704 29.1802C20.29 29.2052 19.557 29.4327 18.7903 29.1797C17.8695 28.8774 17.2226 27.9883 16.9989 26.7866Z" fill="black"/>
<path d="M16.9989 26.7866L17.982 26.6035L17.8101 25.6803L16.8779 25.7939L16.9989 26.7866ZM14.1242 26.7852L14.2461 25.7927L13.3129 25.6781L13.1411 26.6025L14.1242 26.7852ZM12.3326 29.1797L12.0207 28.2296L12.0192 28.2301L12.3326 29.1797ZM10.7525 29.1802L10.4557 30.1352L10.456 30.1352L10.7525 29.1802ZM10.7508 29.1797L10.4398 30.1301L10.4469 30.1324L10.4541 30.1346L10.7508 29.1797ZM8.40582 24.3992L9.40328 24.328L9.37204 23.8905L9.02906 23.6172L8.40582 24.3992ZM6.10101 21.8806L6.93664 21.3313L5.67358 19.4099L5.12942 21.6439L6.10101 21.8806ZM5.97747 22.4359L6.95604 22.6418L5.97747 22.4359ZM5.20991 23.872L4.69936 23.0122L4.69911 23.0123L5.20991 23.872ZM3.36476 24.0936L3.60886 23.1239L3.6086 23.1238L3.36476 24.0936ZM1.78297 22.7639L2.67264 22.3073L2.66955 22.3014L1.78297 22.7639ZM3.36476 17.8943L2.6509 17.194L2.64924 17.1957L3.36476 17.8943ZM4.43792 16.9934L5.00695 17.8158L5.47588 17.4913L5.4354 16.9224L4.43792 16.9934ZM26.6951 17.0067L25.6977 16.9344L25.6566 17.5016L26.123 17.8269L26.6951 17.0067ZM27.7472 17.8943L27.0329 18.5941L27.0403 18.6017L27.0479 18.6091L27.7472 17.8943ZM29.3391 22.7639L28.4528 22.3008L28.4494 22.3073L29.3391 22.7639ZM27.7581 24.0936L28.0022 25.0634L28.0033 25.0631L27.7581 24.0936ZM25.913 23.872L25.4011 24.7311L25.4022 24.7317L25.913 23.872ZM25.1486 22.4402L24.1701 22.6465L24.1701 22.6465L25.1486 22.4402ZM25.0262 21.8909L25.9978 21.6542L25.4545 19.4237L24.1912 21.3406L25.0262 21.8909ZM22.7161 24.4088L22.094 23.6259L21.7502 23.8991L21.7187 24.337L22.7161 24.4088ZM20.3721 29.1797L20.6683 30.1348L20.6757 30.1325L20.6831 30.1301L20.3721 29.1797ZM20.3704 29.1802L20.0742 28.2251L20.0739 28.2252L20.3704 29.1802ZM18.7903 29.1797L19.1037 28.2301L19.1022 28.2296L18.7903 29.1797ZM15.567 27.8731C16.0926 27.8731 16.611 27.8412 17.1198 27.7792L16.8779 25.7939C16.4492 25.8462 16.0117 25.8731 15.567 25.8731V27.8731ZM14.0024 27.7778C14.515 27.8407 15.0373 27.8731 15.567 27.8731V25.8731C15.1189 25.8731 14.678 25.8457 14.2461 25.7927L14.0024 27.7778ZM13.1411 26.6025C12.9602 27.5756 12.485 28.0771 12.0207 28.2296L12.6446 30.1298C14.0224 29.6774 14.8413 28.3997 15.1074 26.968L13.1411 26.6025ZM12.0192 28.2301C11.8072 28.3 11.581 28.3084 11.3829 28.289C11.1893 28.27 11.0585 28.2281 11.0489 28.2251L10.456 30.1352C10.5691 30.1704 11.5636 30.4865 12.646 30.1293L12.0192 28.2301ZM11.0492 28.2252L11.0475 28.2247L10.4541 30.1346L10.4557 30.1352L11.0492 28.2252ZM11.0619 28.2293C10.607 28.0804 10.2143 27.6561 9.90919 26.8801C9.6084 26.115 9.4639 25.1766 9.40328 24.328L7.40836 24.4705C7.47506 25.4042 7.63968 26.5736 8.04787 27.6118C8.45176 28.6392 9.16788 29.7138 10.4398 30.1301L11.0619 28.2293ZM5.26539 22.4299C5.94984 23.4711 6.8014 24.3993 7.78258 25.1812L9.02906 23.6172C8.20977 22.9642 7.50261 22.1923 6.93664 21.3313L5.26539 22.4299ZM5.12942 21.6439C5.07592 21.8636 5.03415 22.0624 4.99889 22.23L6.95604 22.6418C6.99175 22.4721 7.02756 22.3022 7.07261 22.1172L5.12942 21.6439ZM4.99889 22.23C4.96119 22.4092 4.93329 22.5407 4.90336 22.6552C4.87416 22.7669 4.85006 22.8338 4.83003 22.8773C4.81221 22.9161 4.79886 22.9334 4.78934 22.9441C4.77946 22.9551 4.75584 22.9786 4.69936 23.0122L5.72046 24.7319C6.16305 24.4691 6.4561 24.1281 6.64692 23.7133C6.81089 23.357 6.8903 22.9542 6.95604 22.6418L4.99889 22.23ZM4.69911 23.0123C4.51796 23.1199 4.2733 23.1659 4.01488 23.1646C3.76447 23.1632 3.58523 23.1179 3.60886 23.1239L3.12065 25.0634C3.19711 25.0826 3.54383 25.1621 4.00449 25.1645C4.45714 25.1669 5.10864 25.0954 5.72071 24.7317L4.69911 23.0123ZM3.6086 23.1238C3.043 22.9816 2.76955 22.4961 2.67262 22.3073L0.893322 23.2206C1.01859 23.4646 1.64168 24.6915 3.12091 25.0634L3.6086 23.1238ZM2.66955 22.3014C2.36361 21.715 2.50162 20.9556 2.95836 20.1128C3.39469 19.3076 3.9857 18.6898 4.08027 18.5929L2.64924 17.1957C2.5123 17.336 1.76857 18.1106 1.19997 19.1598C0.651785 20.1714 0.114664 21.7282 0.89639 23.2265L2.66955 22.3014ZM4.07861 18.5946C4.38252 18.2848 4.69813 18.0295 5.00695 17.8158L3.8689 16.1711C3.47101 16.4465 3.05533 16.7818 2.6509 17.194L4.07861 18.5946ZM3.41215 16.2667C3.41215 16.5346 3.42168 16.8007 3.44045 17.0644L5.4354 16.9224C5.41999 16.7059 5.41215 16.4872 5.41215 16.2667H3.41215ZM15.567 4.66016C8.90216 4.66016 3.41215 9.80967 3.41215 16.2667H5.41215C5.41215 11.008 9.91053 6.66016 15.567 6.66016V4.66016ZM27.7218 16.2667C27.7218 9.80967 22.2318 4.66016 15.567 4.66016V6.66016C21.2235 6.66016 25.7218 11.008 25.7218 16.2667H27.7218ZM27.6925 17.079C27.712 16.8105 27.7218 16.5396 27.7218 16.2667H25.7218C25.7218 16.4913 25.7137 16.714 25.6977 16.9344L27.6925 17.079ZM26.123 17.8269C26.4256 18.038 26.7347 18.2897 27.0329 18.5941L28.4616 17.1945C28.0651 16.7898 27.658 16.4591 27.2672 16.1865L26.123 17.8269ZM27.0479 18.6091C27.1313 18.6907 27.7258 19.3075 28.1639 20.1138C28.6214 20.9557 28.759 21.7148 28.4528 22.3008L30.2254 23.227C31.0084 21.7284 30.4713 20.1712 29.9212 19.1588C29.3517 18.1107 28.6056 17.3351 28.4465 17.1795L27.0479 18.6091ZM28.4494 22.3073C28.3536 22.4942 28.0798 22.9808 27.513 23.1241L28.0033 25.0631C29.4813 24.6893 30.1041 23.4636 30.2288 23.2205L28.4494 22.3073ZM27.514 23.1239C27.5376 23.1179 27.3584 23.1632 27.108 23.1646C26.8496 23.1659 26.6049 23.1199 26.4238 23.0123L25.4022 24.7317C26.0142 25.0954 26.6657 25.1669 27.1184 25.1645C27.579 25.1621 27.9258 25.0826 28.0022 25.0634L27.514 23.1239ZM26.4248 23.0129C26.369 22.9797 26.3458 22.9564 26.336 22.9455C26.3266 22.935 26.3134 22.9177 26.2956 22.8791C26.2756 22.8356 26.2516 22.7688 26.2224 22.6576C26.1926 22.5434 26.1647 22.4124 26.127 22.2338L24.1701 22.6465C24.2357 22.9578 24.3151 23.3592 24.4784 23.7145C24.6685 24.1278 24.9601 24.4683 25.4011 24.7311L26.4248 23.0129ZM26.127 22.2338C26.0921 22.0679 26.0507 21.8713 25.9978 21.6542L24.0546 22.1275C24.0991 22.3104 24.1347 22.4785 24.1701 22.6465L26.127 22.2338ZM23.3383 25.1917C24.3215 24.4104 25.1749 23.4824 25.8612 22.4412L24.1912 21.3406C23.6237 22.2017 22.915 22.9735 22.094 23.6259L23.3383 25.1917ZM21.7187 24.337C21.6577 25.1851 21.5128 26.1212 21.2121 26.8841C20.9072 27.6577 20.5151 28.0807 20.061 28.2293L20.6831 30.1301C21.9527 29.7146 22.6686 28.6429 23.0728 27.6175C23.4812 26.5813 23.6464 25.414 23.7136 24.4805L21.7187 24.337ZM20.0758 28.2246L20.0742 28.2251L20.6667 30.1353L20.6683 30.1348L20.0758 28.2246ZM20.0739 28.2252C20.0644 28.2281 19.9336 28.27 19.74 28.289C19.5418 28.3084 19.3157 28.3 19.1037 28.2301L18.4769 30.1293C19.5593 30.4865 20.5537 30.1704 20.6669 30.1352L20.0739 28.2252ZM19.1022 28.2296C18.638 28.0772 18.163 27.576 17.982 26.6035L16.0158 26.9696C16.2822 28.4006 17.101 29.6776 18.4783 30.1298L19.1022 28.2296Z" fill="white" mask="url(#path-7-outside-1_17_931)"/>
<path d="M15.5673 21.8441C19.6705 21.8441 22.9968 19.347 22.9968 16.2668C22.9968 13.1865 19.6705 10.6895 15.5673 10.6895C11.464 10.6895 8.1377 13.1865 8.1377 16.2668C8.1377 19.347 11.464 21.8441 15.5673 21.8441Z" fill="white"/>
<path d="M12.3838 18.1803C13.6531 18.1803 14.4912 16.9222 14.4912 15.6356C14.4912 14.3489 13.6531 13.0908 12.3838 13.0908C11.1145 13.0908 10.2764 14.3489 10.2764 15.6356C10.2764 16.9222 11.1145 18.1803 12.3838 18.1803Z" fill="black" stroke="white"/>
<path d="M18.4785 18.1803C19.7478 18.1803 20.5859 16.9222 20.5859 15.6356C20.5859 14.3489 19.7478 13.0908 18.4785 13.0908C17.2092 13.0908 16.3711 14.3489 16.3711 15.6356C16.3711 16.9222 17.2092 18.1803 18.4785 18.1803Z" fill="black" stroke="white"/>
</svg>
