<svg width="36" height="61" viewBox="0 0 36 61" fill="none" xmlns="http://www.w3.org/2000/svg">
<g clip-path="url(#clip0_57_217)">
<path d="M1.03101 0.924194L5.61969 4.33512L9.53922 0.924194L13.8411 4.33512L18.0474 0.924194L22.2537 4.33512L26.5556 0.924194L30.6662 4.33512L35.0638 0.924194V60.0469L30.6662 57.2044L26.5556 60.0469L22.636 57.2044L18.0474 60.0469L13.8411 57.2044L9.53922 60.0469L5.61969 57.2044L1.03101 60.0469V0.924194Z" fill="white"/>
<path d="M1.03101 0.924194L5.61969 4.33512L9.53922 0.924194L13.8411 4.33512L18.0474 0.924194L22.2537 4.33512L26.5556 0.924194L30.6662 4.33512L35.0638 0.924194V60.0469L30.6662 57.2044L26.5556 60.0469L22.636 57.2044L18.0474 60.0469L13.8411 57.2044L9.53922 60.0469L5.61969 57.2044L1.03101 60.0469V0.924194Z" fill="#FFA8DB"/>
</g>
<defs>
<clipPath id="clip0_57_217">
<rect width="34.6166" height="59.8774" fill="white" transform="translate(0.624756 0.732178)"/>
</clipPath>
</defs>
</svg>
